<svg width="20" height="20" viewBox="0 0 20 20" fill="none" xmlns="http://www.w3.org/2000/svg">
<path d="M20.0001 4.28566C20.0001 3.5279 19.699 2.80117 19.1632 2.26535C18.6274 1.72953 17.9007 1.42851 17.1429 1.42851H16.4286V0.734312C16.4286 0.349936 16.1331 0.0200242 15.7487 0.000827672C15.6521 -0.00382556 15.5556 0.0111778 15.465 0.0449286C15.3744 0.0786795 15.2916 0.130475 15.2216 0.197177C15.1516 0.263879 15.0959 0.344098 15.0578 0.432974C15.0197 0.52185 15.0001 0.617532 15 0.714223V1.42851H5.00002V0.734312C5.00002 0.349936 4.70448 0.0200242 4.3201 0.000827672C4.22353 -0.00382556 4.12701 0.0111778 4.0364 0.0449286C3.94579 0.0786795 3.86298 0.130475 3.79298 0.197177C3.72298 0.263879 3.66725 0.344098 3.62917 0.432974C3.59109 0.52185 3.57145 0.617532 3.57144 0.714223V1.42851H2.85715C2.09939 1.42851 1.37266 1.72953 0.836841 2.26535C0.301021 2.80117 0 3.5279 0 4.28566V4.82138C0 4.86874 0.0188138 4.91416 0.0523026 4.94765C0.0857913 4.98114 0.131212 4.99995 0.178572 4.99995H19.8215C19.8689 4.99995 19.9143 4.98114 19.9478 4.94765C19.9813 4.91416 20.0001 4.86874 20.0001 4.82138V4.28566ZM0 17.1428C0 17.9006 0.301021 18.6273 0.836841 19.1632C1.37266 19.699 2.09939 20 2.85715 20H17.1429C17.9007 20 18.6274 19.699 19.1632 19.1632C19.699 18.6273 20.0001 17.9006 20.0001 17.1428V6.56246C20.0001 6.52694 19.986 6.49287 19.9608 6.46775C19.9357 6.44264 19.9017 6.42853 19.8661 6.42853H0.133929C0.0984088 6.42853 0.0643435 6.44264 0.039227 6.46775C0.0141104 6.49287 0 6.52694 0 6.56246V17.1428ZM15.3572 7.8571C15.5691 7.8571 15.7763 7.91994 15.9524 8.03767C16.1286 8.1554 16.266 8.32274 16.3471 8.51852C16.4282 8.71429 16.4494 8.92972 16.408 9.13756C16.3667 9.3454 16.2647 9.53631 16.1148 9.68615C15.965 9.83599 15.7741 9.93804 15.5662 9.97938C15.3584 10.0207 15.143 9.9995 14.9472 9.91841C14.7514 9.83732 14.5841 9.69999 14.4663 9.52379C14.3486 9.34759 14.2858 9.14044 14.2858 8.92854C14.2858 8.64437 14.3986 8.37185 14.5996 8.17092C14.8005 7.96999 15.073 7.8571 15.3572 7.8571ZM15.3572 11.4285C15.5691 11.4285 15.7763 11.4914 15.9524 11.6091C16.1286 11.7268 16.266 11.8942 16.3471 12.09C16.4282 12.2857 16.4494 12.5012 16.408 12.709C16.3667 12.9168 16.2647 13.1077 16.1148 13.2576C15.965 13.4074 15.7741 13.5095 15.5662 13.5508C15.3584 13.5922 15.143 13.5709 14.9472 13.4898C14.7514 13.4088 14.5841 13.2714 14.4663 13.0952C14.3486 12.919 14.2858 12.7119 14.2858 12.5C14.2858 12.2158 14.3986 11.9433 14.5996 11.7424C14.8005 11.5414 15.073 11.4285 15.3572 11.4285ZM11.7858 7.8571C11.9977 7.8571 12.2048 7.91994 12.381 8.03767C12.5572 8.1554 12.6945 8.32274 12.7756 8.51852C12.8567 8.71429 12.8779 8.92972 12.8366 9.13756C12.7953 9.3454 12.6932 9.53631 12.5434 9.68615C12.3935 9.83599 12.2026 9.93804 11.9948 9.97938C11.7869 10.0207 11.5715 9.9995 11.3757 9.91841C11.18 9.83732 11.0126 9.69999 10.8949 9.52379C10.7772 9.34759 10.7143 9.14044 10.7143 8.92854C10.7143 8.64437 10.8272 8.37185 11.0281 8.17092C11.2291 7.96999 11.5016 7.8571 11.7858 7.8571ZM11.7858 11.4285C11.9977 11.4285 12.2048 11.4914 12.381 11.6091C12.5572 11.7268 12.6945 11.8942 12.7756 12.09C12.8567 12.2857 12.8779 12.5012 12.8366 12.709C12.7953 12.9168 12.6932 13.1077 12.5434 13.2576C12.3935 13.4074 12.2026 13.5095 11.9948 13.5508C11.7869 13.5922 11.5715 13.5709 11.3757 13.4898C11.18 13.4088 11.0126 13.2714 10.8949 13.0952C10.7772 12.919 10.7143 12.7119 10.7143 12.5C10.7143 12.2158 10.8272 11.9433 11.0281 11.7424C11.2291 11.5414 11.5016 11.4285 11.7858 11.4285ZM11.7858 15C11.9977 15 12.2048 15.0628 12.381 15.1806C12.5572 15.2983 12.6945 15.4656 12.7756 15.6614C12.8567 15.8572 12.8779 16.0726 12.8366 16.2804C12.7953 16.4883 12.6932 16.6792 12.5434 16.829C12.3935 16.9789 12.2026 17.0809 11.9948 17.1223C11.7869 17.1636 11.5715 17.1424 11.3757 17.0613C11.18 16.9802 11.0126 16.8429 10.8949 16.6667C10.7772 16.4905 10.7143 16.2833 10.7143 16.0714C10.7143 15.7873 10.8272 15.5147 11.0281 15.3138C11.2291 15.1129 11.5016 15 11.7858 15ZM8.21431 11.4285C8.42622 11.4285 8.63337 11.4914 8.80957 11.6091C8.98576 11.7268 9.12309 11.8942 9.20419 12.09C9.28528 12.2857 9.3065 12.5012 9.26516 12.709C9.22382 12.9168 9.12177 13.1077 8.97193 13.2576C8.82209 13.4074 8.63118 13.5095 8.42334 13.5508C8.2155 13.5922 8.00007 13.5709 7.80429 13.4898C7.60851 13.4088 7.44118 13.2714 7.32345 13.0952C7.20572 12.919 7.14288 12.7119 7.14288 12.5C7.14288 12.2158 7.25576 11.9433 7.4567 11.7424C7.65763 11.5414 7.93015 11.4285 8.21431 11.4285ZM8.21431 15C8.42622 15 8.63337 15.0628 8.80957 15.1806C8.98576 15.2983 9.12309 15.4656 9.20419 15.6614C9.28528 15.8572 9.3065 16.0726 9.26516 16.2804C9.22382 16.4883 9.12177 16.6792 8.97193 16.829C8.82209 16.9789 8.63118 17.0809 8.42334 17.1223C8.2155 17.1636 8.00007 17.1424 7.80429 17.0613C7.60851 16.9802 7.44118 16.8429 7.32345 16.6667C7.20572 16.4905 7.14288 16.2833 7.14288 16.0714C7.14288 15.7873 7.25576 15.5147 7.4567 15.3138C7.65763 15.1129 7.93015 15 8.21431 15ZM4.64287 11.4285C4.85478 11.4285 5.06193 11.4914 5.23813 11.6091C5.41432 11.7268 5.55165 11.8942 5.63275 12.09C5.71384 12.2857 5.73506 12.5012 5.69372 12.709C5.65238 12.9168 5.55033 13.1077 5.40049 13.2576C5.25065 13.4074 5.05974 13.5095 4.8519 13.5508C4.64406 13.5922 4.42863 13.5709 4.23285 13.4898C4.03707 13.4088 3.86974 13.2714 3.75201 13.0952C3.63428 12.919 3.57144 12.7119 3.57144 12.5C3.57144 12.2158 3.68432 11.9433 3.88526 11.7424C4.08619 11.5414 4.35871 11.4285 4.64287 11.4285ZM4.64287 15C4.85478 15 5.06193 15.0628 5.23813 15.1806C5.41432 15.2983 5.55165 15.4656 5.63275 15.6614C5.71384 15.8572 5.73506 16.0726 5.69372 16.2804C5.65238 16.4883 5.55033 16.6792 5.40049 16.829C5.25065 16.9789 5.05974 17.0809 4.8519 17.1223C4.64406 17.1636 4.42863 17.1424 4.23285 17.0613C4.03707 16.9802 3.86974 16.8429 3.75201 16.6667C3.63428 16.4905 3.57144 16.2833 3.57144 16.0714C3.57144 15.7873 3.68432 15.5147 3.88526 15.3138C4.08619 15.1129 4.35871 15 4.64287 15Z" fill="#677482"/>
</svg>
