<svg width="20" height="20" viewBox="0 0 20 20" fill="none" xmlns="http://www.w3.org/2000/svg">
<g clip-path="url(#clip0_440_5699)">
<path d="M17.4643 6.66667H12.7143V2C12.7143 1.46957 12.4998 0.960859 12.118 0.585786C11.7363 0.210714 11.2185 0 10.6786 0H2.53571C1.99581 0 1.47802 0.210714 1.09625 0.585786C0.714476 0.960859 0.5 1.46957 0.5 2V19.3333C0.5 19.5101 0.571492 19.6797 0.698749 19.8047C0.826006 19.9298 0.998603 20 1.17857 20H5.58929C5.67927 20 5.76557 19.9649 5.8292 19.9024C5.89283 19.8399 5.92857 19.7551 5.92857 19.6667V16.6854C5.92857 16.3267 6.20933 16.0188 6.57449 16.0008C6.66624 15.9965 6.75793 16.0105 6.84401 16.042C6.93008 16.0735 7.00876 16.1218 7.07525 16.1841C7.14175 16.2463 7.1947 16.3212 7.23087 16.4042C7.26705 16.4871 7.28571 16.5764 7.28571 16.6667V19.6667C7.28571 19.7551 7.32146 19.8399 7.38509 19.9024C7.44872 19.9649 7.53502 20 7.625 20H18.8214C19.0014 20 19.174 19.9298 19.3013 19.8047C19.4285 19.6797 19.5 19.5101 19.5 19.3333V8.66667C19.5 8.13623 19.2855 7.62753 18.9038 7.25245C18.522 6.87738 18.0042 6.66667 17.4643 6.66667ZM3.3025 17.3279C3.16196 17.346 3.0192 17.3203 2.89424 17.2546C2.76929 17.1889 2.66842 17.0864 2.60578 16.9615C2.54315 16.8366 2.5219 16.6955 2.54502 16.5581C2.56814 16.4208 2.63446 16.2939 2.73468 16.1955C2.8349 16.097 2.96399 16.0319 3.10382 16.0091C3.24366 15.9864 3.38722 16.0073 3.51437 16.0688C3.64151 16.1304 3.74585 16.2295 3.81274 16.3522C3.87964 16.475 3.90572 16.6153 3.88734 16.7533C3.86795 16.899 3.80009 17.0344 3.69432 17.1383C3.58856 17.2422 3.45081 17.3089 3.3025 17.3279ZM3.3025 13.9946C3.16196 14.0126 3.0192 13.987 2.89424 13.9213C2.76929 13.8556 2.66842 13.7531 2.60578 13.6282C2.54315 13.5032 2.5219 13.3622 2.54502 13.2248C2.56814 13.0874 2.63446 12.9606 2.73468 12.8621C2.8349 12.7637 2.96399 12.6985 3.10382 12.6758C3.24366 12.6531 3.38722 12.674 3.51437 12.7355C3.64151 12.797 3.74585 12.8961 3.81274 13.0189C3.87964 13.1417 3.90572 13.2819 3.88734 13.42C3.86795 13.5657 3.80009 13.701 3.69432 13.805C3.58856 13.9089 3.45081 13.9755 3.3025 13.9946ZM3.3025 10.6613C3.16196 10.6793 3.0192 10.6537 2.89424 10.588C2.76929 10.5222 2.66842 10.4197 2.60578 10.2948C2.54315 10.1699 2.5219 10.0289 2.54502 9.89148C2.56814 9.75409 2.63446 9.62727 2.73468 9.52881C2.8349 9.43035 2.96399 9.36519 3.10382 9.34247C3.24366 9.31976 3.38722 9.34064 3.51437 9.40217C3.64151 9.46371 3.74585 9.56281 3.81274 9.68557C3.87964 9.80834 3.90572 9.9486 3.88734 10.0867C3.86795 10.2324 3.80009 10.3677 3.69432 10.4716C3.58856 10.5755 3.45081 10.6422 3.3025 10.6613ZM3.3025 7.32792C3.16196 7.34597 3.0192 7.32035 2.89424 7.25463C2.76929 7.18891 2.66842 7.0864 2.60578 6.96148C2.54315 6.83657 2.5219 6.69552 2.54502 6.55814C2.56814 6.42076 2.63446 6.29394 2.73468 6.19548C2.8349 6.09701 2.96399 6.03185 3.10382 6.00914C3.24366 5.98643 3.38722 6.0073 3.51437 6.06884C3.64151 6.13037 3.74585 6.22948 3.81274 6.35224C3.87964 6.475 3.90572 6.61526 3.88734 6.75333C3.86795 6.89904 3.80009 7.03437 3.69432 7.13828C3.58856 7.24219 3.45081 7.30886 3.3025 7.32792ZM3.3025 3.99458C3.16196 4.01264 3.0192 3.98701 2.89424 3.92129C2.76929 3.85557 2.66842 3.75306 2.60578 3.62815C2.54315 3.50324 2.5219 3.36219 2.54502 3.22481C2.56814 3.08743 2.63446 2.9606 2.73468 2.86214C2.8349 2.76368 2.96399 2.69852 3.10382 2.67581C3.24366 2.6531 3.38722 2.67397 3.51437 2.73551C3.64151 2.79704 3.74585 2.89614 3.81274 3.01891C3.87964 3.14167 3.90572 3.28193 3.88734 3.42C3.86795 3.56571 3.80009 3.70104 3.69432 3.80495C3.58856 3.90886 3.45081 3.97553 3.3025 3.99458ZM6.69536 13.9946C6.55482 14.0126 6.41206 13.987 6.2871 13.9213C6.16215 13.8556 6.06127 13.7531 5.99864 13.6282C5.93601 13.5032 5.91476 13.3622 5.93788 13.2248C5.96099 13.0874 6.02732 12.9606 6.12754 12.8621C6.22776 12.7637 6.35684 12.6985 6.49668 12.6758C6.63652 12.6531 6.78008 12.674 6.90722 12.7355C7.03437 12.797 7.13871 12.8961 7.2056 13.0189C7.27249 13.1417 7.29858 13.2819 7.2802 13.42C7.2608 13.5657 7.19295 13.701 7.08718 13.805C6.98142 13.9089 6.84367 13.9755 6.69536 13.9946ZM6.69536 10.6613C6.55482 10.6793 6.41206 10.6537 6.2871 10.588C6.16215 10.5222 6.06127 10.4197 5.99864 10.2948C5.93601 10.1699 5.91476 10.0289 5.93788 9.89148C5.96099 9.75409 6.02732 9.62727 6.12754 9.52881C6.22776 9.43035 6.35684 9.36519 6.49668 9.34247C6.63652 9.31976 6.78008 9.34064 6.90722 9.40217C7.03437 9.46371 7.13871 9.56281 7.2056 9.68557C7.27249 9.80834 7.29858 9.9486 7.2802 10.0867C7.2608 10.2324 7.19295 10.3677 7.08718 10.4716C6.98142 10.5755 6.84367 10.6422 6.69536 10.6613ZM6.69536 7.32792C6.55482 7.34597 6.41206 7.32035 6.2871 7.25463C6.16215 7.18891 6.06127 7.0864 5.99864 6.96148C5.93601 6.83657 5.91476 6.69552 5.93788 6.55814C5.96099 6.42076 6.02732 6.29394 6.12754 6.19548C6.22776 6.09701 6.35684 6.03185 6.49668 6.00914C6.63652 5.98643 6.78008 6.0073 6.90722 6.06884C7.03437 6.13037 7.13871 6.22948 7.2056 6.35224C7.27249 6.475 7.29858 6.61526 7.2802 6.75333C7.2608 6.89904 7.19295 7.03437 7.08718 7.13828C6.98142 7.24219 6.84367 7.30886 6.69536 7.32792ZM6.69536 3.99458C6.55482 4.01264 6.41206 3.98701 6.2871 3.92129C6.16215 3.85557 6.06127 3.75306 5.99864 3.62815C5.93601 3.50324 5.91476 3.36219 5.93788 3.22481C5.96099 3.08743 6.02732 2.9606 6.12754 2.86214C6.22776 2.76368 6.35684 2.69852 6.49668 2.67581C6.63652 2.6531 6.78008 2.67397 6.90722 2.73551C7.03437 2.79704 7.13871 2.89614 7.2056 3.01891C7.27249 3.14167 7.29858 3.28193 7.2802 3.42C7.2608 3.56571 7.19295 3.70104 7.08718 3.80495C6.98142 3.90886 6.84367 3.97553 6.69536 3.99458ZM10.0882 17.3279C9.94768 17.346 9.80491 17.3203 9.67996 17.2546C9.555 17.1889 9.45413 17.0864 9.3915 16.9615C9.32886 16.8366 9.30762 16.6955 9.33073 16.5581C9.35385 16.4208 9.42017 16.2939 9.5204 16.1955C9.62062 16.097 9.7497 16.0319 9.88954 16.0091C10.0294 15.9864 10.1729 16.0073 10.3001 16.0688C10.4272 16.1304 10.5316 16.2295 10.5985 16.3522C10.6654 16.475 10.6914 16.6153 10.6731 16.7533C10.6537 16.899 10.5858 17.0344 10.48 17.1383C10.3743 17.2422 10.2365 17.3089 10.0882 17.3279ZM10.0882 13.9946C9.94768 14.0126 9.80491 13.987 9.67996 13.9213C9.555 13.8556 9.45413 13.7531 9.3915 13.6282C9.32886 13.5032 9.30762 13.3622 9.33073 13.2248C9.35385 13.0874 9.42017 12.9606 9.5204 12.8621C9.62062 12.7637 9.7497 12.6985 9.88954 12.6758C10.0294 12.6531 10.1729 12.674 10.3001 12.7355C10.4272 12.797 10.5316 12.8961 10.5985 13.0189C10.6654 13.1417 10.6914 13.2819 10.6731 13.42C10.6537 13.5657 10.5858 13.701 10.48 13.805C10.3743 13.9089 10.2365 13.9755 10.0882 13.9946ZM10.0882 10.6613C9.94768 10.6793 9.80491 10.6537 9.67996 10.588C9.555 10.5222 9.45413 10.4197 9.3915 10.2948C9.32886 10.1699 9.30762 10.0289 9.33073 9.89148C9.35385 9.75409 9.42017 9.62727 9.5204 9.52881C9.62062 9.43035 9.7497 9.36519 9.88954 9.34247C10.0294 9.31976 10.1729 9.34064 10.3001 9.40217C10.4272 9.46371 10.5316 9.56281 10.5985 9.68557C10.6654 9.80834 10.6914 9.9486 10.6731 10.0867C10.6537 10.2324 10.5858 10.3677 10.48 10.4716C10.3743 10.5755 10.2365 10.6422 10.0882 10.6613ZM10.0882 7.32792C9.94768 7.34597 9.80491 7.32035 9.67996 7.25463C9.555 7.18891 9.45413 7.0864 9.3915 6.96148C9.32886 6.83657 9.30762 6.69552 9.33073 6.55814C9.35385 6.42076 9.42017 6.29394 9.5204 6.19548C9.62062 6.09701 9.7497 6.03185 9.88954 6.00914C10.0294 5.98643 10.1729 6.0073 10.3001 6.06884C10.4272 6.13037 10.5316 6.22948 10.5985 6.35224C10.6654 6.475 10.6914 6.61526 10.6731 6.75333C10.6537 6.89904 10.5858 7.03437 10.48 7.13828C10.3743 7.24219 10.2365 7.30886 10.0882 7.32792ZM10.0882 3.99458C9.94768 4.01264 9.80491 3.98701 9.67996 3.92129C9.555 3.85557 9.45413 3.75306 9.3915 3.62815C9.32886 3.50324 9.30762 3.36219 9.33073 3.22481C9.35385 3.08743 9.42017 2.9606 9.5204 2.86214C9.62062 2.76368 9.7497 2.69852 9.88954 2.67581C10.0294 2.6531 10.1729 2.67397 10.3001 2.73551C10.4272 2.79704 10.5316 2.89614 10.5985 3.01891C10.6654 3.14167 10.6914 3.28193 10.6731 3.42C10.6537 3.56571 10.5858 3.70104 10.48 3.80495C10.3743 3.90886 10.2365 3.97553 10.0882 3.99458ZM17.9732 18.6667H12.7143V8H17.4643C17.6443 8 17.8169 8.07024 17.9441 8.19526C18.0714 8.32029 18.1429 8.48986 18.1429 8.66667V18.5C18.1429 18.5442 18.125 18.5866 18.0932 18.6179C18.0614 18.6491 18.0182 18.6667 17.9732 18.6667Z" fill="#677482"/>
<path d="M16.1071 16C15.9729 16 15.8417 16.0391 15.7302 16.1124C15.6186 16.1856 15.5316 16.2897 15.4802 16.4115C15.4289 16.5334 15.4154 16.6674 15.4416 16.7967C15.4678 16.926 15.5324 17.0448 15.6273 17.1381C15.7222 17.2313 15.8431 17.2948 15.9748 17.3205C16.1064 17.3462 16.2428 17.333 16.3668 17.2826C16.4908 17.2321 16.5968 17.1467 16.6714 17.037C16.7459 16.9274 16.7857 16.7985 16.7857 16.6667C16.7857 16.4899 16.7142 16.3203 16.587 16.1953C16.4597 16.0702 16.2871 16 16.1071 16ZM16.1071 12.6667C15.9729 12.6667 15.8417 12.7058 15.7302 12.779C15.6186 12.8523 15.5316 12.9564 15.4802 13.0782C15.4289 13.2 15.4154 13.3341 15.4416 13.4634C15.4678 13.5927 15.5324 13.7115 15.6273 13.8047C15.7222 13.898 15.8431 13.9615 15.9748 13.9872C16.1064 14.0129 16.2428 13.9997 16.3668 13.9493C16.4908 13.8988 16.5968 13.8133 16.6714 13.7037C16.7459 13.5941 16.7857 13.4652 16.7857 13.3333C16.7857 13.1565 16.7142 12.987 16.587 12.8619C16.4597 12.7369 16.2871 12.6667 16.1071 12.6667ZM16.1071 9.33333C15.9729 9.33333 15.8417 9.37243 15.7302 9.44569C15.6186 9.51894 15.5316 9.62306 15.4802 9.74488C15.4289 9.8667 15.4154 10.0007 15.4416 10.1301C15.4678 10.2594 15.5324 10.3782 15.6273 10.4714C15.7222 10.5646 15.8431 10.6281 15.9748 10.6539C16.1064 10.6796 16.2428 10.6664 16.3668 10.6159C16.4908 10.5655 16.5968 10.48 16.6714 10.3704C16.7459 10.2607 16.7857 10.1319 16.7857 10C16.7857 9.82319 16.7142 9.65362 16.587 9.5286C16.4597 9.40357 16.2871 9.33333 16.1071 9.33333ZM13.3929 16C13.2586 16 13.1275 16.0391 13.0159 16.1124C12.9043 16.1856 12.8173 16.2897 12.7659 16.4115C12.7146 16.5334 12.7011 16.6674 12.7273 16.7967C12.7535 16.926 12.8181 17.0448 12.913 17.1381C13.0079 17.2313 13.1288 17.2948 13.2605 17.3205C13.3921 17.3462 13.5285 17.333 13.6525 17.2826C13.7765 17.2321 13.8825 17.1467 13.9571 17.037C14.0316 16.9274 14.0714 16.7985 14.0714 16.6667C14.0714 16.4899 13.9999 16.3203 13.8727 16.1953C13.7454 16.0702 13.5728 16 13.3929 16ZM13.3929 12.6667C13.2586 12.6667 13.1275 12.7058 13.0159 12.779C12.9043 12.8523 12.8173 12.9564 12.7659 13.0782C12.7146 13.2 12.7011 13.3341 12.7273 13.4634C12.7535 13.5927 12.8181 13.7115 12.913 13.8047C13.0079 13.898 13.1288 13.9615 13.2605 13.9872C13.3921 14.0129 13.5285 13.9997 13.6525 13.9493C13.7765 13.8988 13.8825 13.8133 13.9571 13.7037C14.0316 13.5941 14.0714 13.4652 14.0714 13.3333C14.0714 13.1565 13.9999 12.987 13.8727 12.8619C13.7454 12.7369 13.5728 12.6667 13.3929 12.6667ZM13.3929 9.33333C13.2586 9.33333 13.1275 9.37243 13.0159 9.44569C12.9043 9.51894 12.8173 9.62306 12.7659 9.74488C12.7146 9.8667 12.7011 10.0007 12.7273 10.1301C12.7535 10.2594 12.8181 10.3782 12.913 10.4714C13.0079 10.5646 13.1288 10.6281 13.2605 10.6539C13.3921 10.6796 13.5285 10.6664 13.6525 10.6159C13.7765 10.5655 13.8825 10.48 13.9571 10.3704C14.0316 10.2607 14.0714 10.1319 14.0714 10C14.0714 9.82319 13.9999 9.65362 13.8727 9.5286C13.7454 9.40357 13.5728 9.33333 13.3929 9.33333Z" fill="#677482"/>
</g>
<defs>
<clipPath id="clip0_440_5699">
<rect width="20" height="20" fill="white"/>
</clipPath>
</defs>
</svg>
