<svg width="20" height="20" viewBox="0 0 20 20" fill="none" xmlns="http://www.w3.org/2000/svg">
<path d="M16 8.7V16.75C16 16.9798 15.9547 17.2074 15.8668 17.4197C15.7788 17.632 15.6499 17.8249 15.4874 17.9874C15.3249 18.1499 15.132 18.2788 14.9197 18.3668C14.7074 18.4547 14.4798 18.5 14.25 18.5H3.75C3.28587 18.5 2.84075 18.3156 2.51256 17.9874C2.18437 17.6592 2 17.2141 2 16.75V6.25C2 5.78587 2.18437 5.34075 2.51256 5.01256C2.84075 4.68437 3.28587 4.5 3.75 4.5H11.0773" stroke="white" stroke-width="1.68" stroke-linecap="round" stroke-linejoin="round"/>
<path d="M19.3222 1.2297C19.2583 1.15946 19.1808 1.1029 19.0944 1.06346C19.008 1.02401 18.9145 1.00249 18.8195 1.0002C18.7246 0.997914 18.6301 1.0149 18.5419 1.05013C18.4537 1.08537 18.3736 1.13812 18.3064 1.2052L17.7652 1.74376C17.6996 1.80939 17.6627 1.89838 17.6627 1.99117C17.6627 2.08396 17.6996 2.17294 17.7652 2.23858L18.2613 2.73383C18.2938 2.7665 18.3325 2.79243 18.375 2.81012C18.4176 2.82781 18.4633 2.83691 18.5094 2.83691C18.5555 2.83691 18.6011 2.82781 18.6437 2.81012C18.6862 2.79243 18.7249 2.7665 18.7574 2.73383L19.285 2.20883C19.5519 1.94239 19.5769 1.50839 19.3222 1.2297ZM16.671 2.83751L8.77323 10.7213C8.72535 10.769 8.69054 10.8282 8.67217 10.8932L8.30686 11.9813C8.29811 12.0108 8.29749 12.0421 8.30506 12.072C8.31264 12.1018 8.32813 12.1291 8.34991 12.1508C8.37168 12.1726 8.39893 12.1881 8.42878 12.1957C8.45862 12.2033 8.48996 12.2026 8.51948 12.1939L9.60667 11.8286C9.67171 11.8102 9.73092 11.7754 9.77861 11.7275L17.6624 3.82889C17.7353 3.75517 17.7762 3.65565 17.7762 3.55195C17.7762 3.44825 17.7353 3.34873 17.6624 3.27501L17.227 2.83751C17.1532 2.76391 17.0533 2.72258 16.949 2.72258C16.8448 2.72258 16.7448 2.76391 16.671 2.83751Z" fill="white"/>
</svg>
