<svg width="19" height="21" viewBox="0 0 19 21" fill="none" xmlns="http://www.w3.org/2000/svg">
<path d="M9.5 10.5C10.4585 10.5 11.3954 10.2068 12.1924 9.65735C12.9893 9.10794 13.6105 8.32705 13.9773 7.41342C14.3441 6.49979 14.44 5.49445 14.253 4.52455C14.066 3.55465 13.6045 2.66373 12.9267 1.96447C12.249 1.26521 11.3855 0.789002 10.4454 0.596076C9.50538 0.40315 8.53098 0.502166 7.64546 0.880605C6.75994 1.25904 6.00307 1.8999 5.47057 2.72215C4.93807 3.5444 4.65385 4.5111 4.65385 5.5C4.65385 6.82608 5.16442 8.09785 6.07325 9.03553C6.98208 9.97322 8.21472 10.5 9.5 10.5ZM9.5 11.9286C6.49625 11.9286 0.5 13.8429 0.5 17.6429V20.5H18.5V17.6429C18.5 13.8429 12.5037 11.9286 9.5 11.9286Z" fill="#677482"/>
</svg>
