<svg width="20" height="20" viewBox="0 0 20 20" fill="none" xmlns="http://www.w3.org/2000/svg">
<path d="M16.3556 19.9346C15.4842 19.9346 14.26 19.6195 12.427 18.5953C10.1979 17.3453 8.47381 16.1913 6.25682 13.9801C4.11929 11.8439 3.0791 10.4609 1.62328 7.81173C-0.0213804 4.82062 0.25898 3.25274 0.572377 2.58265C0.945596 1.78174 1.4965 1.30272 2.20856 0.827268C2.613 0.562281 3.04101 0.335127 3.48714 0.148688C3.53179 0.129492 3.57331 0.111188 3.61036 0.09467C3.83134 -0.00488474 4.16617 -0.155333 4.59028 0.00538325C4.87332 0.111635 5.126 0.329048 5.52154 0.719678C6.33271 1.51969 7.44121 3.3014 7.85014 4.17642C8.1247 4.76615 8.3064 5.15545 8.30684 5.59206C8.30684 6.10322 8.0497 6.49743 7.73764 6.92288C7.67916 7.00279 7.62112 7.07913 7.56487 7.15324C7.22513 7.59967 7.15058 7.72869 7.19969 7.95905C7.29924 8.422 8.04166 9.80014 9.26177 11.0176C10.4819 12.235 11.8203 12.9305 12.285 13.0296C12.5252 13.081 12.6569 13.0033 13.1176 12.6515C13.1837 12.6011 13.2515 12.5488 13.3225 12.4966C13.7984 12.1426 14.1743 11.8921 14.6734 11.8921H14.6761C15.1105 11.8921 15.4824 12.0805 16.0985 12.3912C16.902 12.7966 18.7373 13.8908 19.5422 14.7029C19.9338 15.0975 20.1521 15.3493 20.2588 15.6319C20.4195 16.0574 20.2681 16.3908 20.1695 16.6141C20.153 16.6511 20.1347 16.6917 20.1155 16.7368C19.9276 17.1822 19.6991 17.6093 19.4329 18.0127C18.9583 18.7226 18.4775 19.2721 17.6748 19.6458C17.2626 19.8408 16.8115 19.9395 16.3556 19.9346Z" fill="#677482"/>
</svg>
