<svg width="21" height="21" viewBox="0 0 21 21" fill="none" xmlns="http://www.w3.org/2000/svg">
<g clip-path="url(#clip0_440_5715)">
<path d="M5.96831 0.5C4.7835 0.5 3.64557 0.986408 2.80858 1.84375C1.97158 2.70109 1.5 3.86028 1.5 5.07161V11.1693C1.50127 11.5376 1.79637 11.8347 2.15748 11.8333H7.38795H8.03905H8.04416V5.17057C8.04416 3.33815 8.86626 1.62755 10.2426 0.5H6.07938H5.96831ZM13.9206 0.505208C13.1302 0.505208 12.3398 0.713928 11.6328 1.13021C10.2184 1.96312 9.34635 3.5038 9.34635 5.17057V11.8333H11.9622H17.8438C18.2049 11.8347 18.4987 11.5376 18.5 11.1693V5.17057C18.5 4.96177 18.486 4.75447 18.4591 4.55078C18.4324 4.34768 18.392 4.14834 18.3404 3.95312C18.3191 3.87311 18.2867 3.79727 18.2613 3.71875C18.1617 3.41307 18.0395 3.1166 17.8821 2.83854C17.7834 2.66413 17.6739 2.49627 17.554 2.33594C17.498 2.26102 17.432 2.19386 17.3714 2.1224C17.302 2.04073 17.2372 1.95573 17.1621 1.87891C16.8809 1.59131 16.5608 1.33845 16.2071 1.13021C15.726 0.846919 15.2058 0.667498 14.6739 0.576823C14.4811 0.549857 14.2878 0.532286 14.0942 0.52474C14.0894 0.52304 14.085 0.521111 14.0802 0.519531C14.0605 0.515128 14.0402 0.514121 14.0202 0.511719C13.9869 0.510978 13.9539 0.505208 13.9206 0.505208ZM11.8946 5.17057C11.9171 5.16938 11.9397 5.16938 11.9622 5.17057H15.8841C16.055 5.17444 16.2175 5.24637 16.337 5.37098C16.4565 5.49558 16.5234 5.66295 16.5234 5.83724C16.5234 6.01153 16.4565 6.1789 16.337 6.3035C16.2175 6.4281 16.055 6.50004 15.8841 6.5039H11.9622C11.7912 6.5091 11.6249 6.44576 11.4991 6.32746C11.3732 6.20917 11.2978 6.04531 11.2889 5.87099C11.2801 5.69668 11.3385 5.52576 11.4517 5.39484C11.5649 5.26392 11.7239 5.18342 11.8946 5.17057ZM8.03905 13.168V19.8359C8.04036 20.2042 8.33414 20.5014 8.69525 20.5H10.6536C11.0129 20.4987 11.3035 20.2023 11.3047 19.8359V13.168H8.03905Z" fill="#677482"/>
</g>
<defs>
<clipPath id="clip0_440_5715">
<rect width="20" height="20" fill="white" transform="translate(0.5 0.5)"/>
</clipPath>
</defs>
</svg>
