<svg width="17" height="17" viewBox="0 0 17 17" fill="none" xmlns="http://www.w3.org/2000/svg">
<path d="M16.2548 14.894L12.6277 11.2669C13.5009 10.1043 13.9723 8.68932 13.9707 7.23536C13.9707 3.52151 10.9492 0.5 7.23536 0.5C3.52151 0.5 0.5 3.52151 0.5 7.23536C0.5 10.9492 3.52151 13.9707 7.23536 13.9707C8.68932 13.9723 10.1043 13.5009 11.2669 12.6277L14.894 16.2548C15.0776 16.4189 15.3171 16.5065 15.5632 16.4996C15.8094 16.4927 16.0436 16.3919 16.2177 16.2177C16.3919 16.0436 16.4927 15.8094 16.4996 15.5632C16.5065 15.3171 16.4189 15.0776 16.2548 14.894ZM2.42439 7.23536C2.42439 6.28384 2.70655 5.35369 3.23518 4.56253C3.76382 3.77137 4.51519 3.15473 5.39428 2.7906C6.27337 2.42647 7.2407 2.3312 8.17393 2.51683C9.10717 2.70246 9.9644 3.16066 10.6372 3.83349C11.3101 4.50632 11.7683 5.36355 11.9539 6.29679C12.1395 7.23002 12.0442 8.19735 11.6801 9.07644C11.316 9.95553 10.6994 10.7069 9.90819 11.2355C9.11703 11.7642 8.18688 12.0463 7.23536 12.0463C5.95988 12.0448 4.73708 11.5374 3.83518 10.6355C2.93328 9.73364 2.42592 8.51084 2.42439 7.23536Z" fill="#677482"/>
</svg>
